<?xml version="1.0" standalone="no"?>
<!DOCTYPE svg PUBLIC "-//W3C//DTD SVG 20010904//EN"
 "http://www.w3.org/TR/2001/REC-SVG-20010904/DTD/svg10.dtd">
<svg version="1.0" xmlns="http://www.w3.org/2000/svg"
 width="50.000000pt" height="50.000000pt" viewBox="0 0 50.000000 50.000000"
 preserveAspectRatio="xMidYMid meet">

<g transform="translate(0.000000,50.000000) scale(0.100000,-0.100000)"
fill="#000000" stroke="none">
<path d="M167 446 c-84 -31 -147 -111 -147 -186 0 -43 34 -114 68 -140 25 -20
25 -21 9 -56 -9 -19 -17 -37 -17 -41 0 -10 63 7 89 24 16 10 48 16 86 17 44 1
74 8 110 27 144 74 150 253 10 335 -56 32 -150 42 -208 20z m158 -17 c54 -15
121 -83 130 -132 12 -62 -3 -107 -49 -153 -46 -47 -99 -66 -174 -63 -33 1 -58
-5 -84 -21 -42 -24 -44 -23 -27 14 11 23 8 30 -29 70 -68 73 -69 158 -4 228
58 61 145 82 237 57z"/>
<path d="M134 269 c-10 -17 13 -36 27 -22 12 12 4 33 -11 33 -5 0 -12 -5 -16
-11z"/>
<path d="M234 269 c-10 -17 13 -36 27 -22 12 12 4 33 -11 33 -5 0 -12 -5 -16
-11z"/>
<path d="M334 269 c-10 -17 13 -36 27 -22 12 12 4 33 -11 33 -5 0 -12 -5 -16
-11z"/>
</g>
</svg>
